<svg id="レイヤー_1" data-name="レイヤー 1" xmlns="http://www.w3.org/2000/svg" xmlns:xlink="http://www.w3.org/1999/xlink" viewBox="0 0 440 100"><defs><style>.cls-1{fill:none;}.cls-2{opacity:0.2;}.cls-3{clip-path:url(#clip-path);}.cls-4{fill:url(#名称未設定グラデーション_35);}</style><clipPath id="clip-path"><path class="cls-1" d="M76.8,39.9c0-9.3-2-12.8-10.4-12.8-4.3,0-8.1,1.5-11.3,2.9a27.5,27.5,0,0,1,1.5,9.9v31H45.9v-31c0-9.3-1.2-12.8-11.1-12.8a26.42,26.42,0,0,0-9.2,1.8v42H14.8V23H25.3v3.9c3.1-2.7,8.5-4.6,14.3-4.6,7.2,0,11.9,1.7,14.5,5.8a27.61,27.61,0,0,1,17.1-5.8c10.51,0,16.41,4.8,16.41,17.6v31H76.8ZM109,68.5V90.9H98.3V23h10.4v2.7c3.9-2.5,8.7-3.4,13.8-3.4,12.8,0,22,8.3,22,24.7,0,16.2-9.1,24.6-22,24.6C117.5,71.6,112.9,70.8,109,68.5Zm24.4-21.6c0-14.9-5-20.2-15.1-20.2a28.83,28.83,0,0,0-9.3,1.6V65.7a29.31,29.31,0,0,0,9.3,1.6C128.4,67.3,133.4,62,133.4,46.9ZM150.1,23h7.3V9.1h10.8V23h12.6v3.6H168.2V59.8c0,5.8,2.2,7.6,7.6,7.6a20.74,20.74,0,0,0,5-.6v3.4a36.06,36.06,0,0,1-9.4,1c-8,0-14-2.6-14-13.5V26.6h-7.3Zm36.4,23.9c0-16.4,9.8-24.6,22.5-24.6,13.4,0,22,7.7,22,23.9,0,.8-.1,1.8-.2,2.8H197.3c.3,15.1,4.9,18.5,18.3,18.5a66.34,66.34,0,0,0,12.6-1.1v3.4a61.9,61.9,0,0,1-15.1,1.6C197.5,71.4,186.5,66.1,186.5,46.9Zm10.8-1.5h23.3c-.4-13.6-2.5-19.3-11.5-19.3C200.4,26.1,197.5,31.8,197.3,45.4Zm43-22.4h10.4v3.6c3.5-2.4,9.4-4.3,15.6-4.3,11.2,0,18.2,4.7,18.2,17.6v31H273.7v-31c0-9.3-3.2-12.8-12.3-12.8a32.61,32.61,0,0,0-10.3,1.8v42H240.3Zm52.3,47V66.6a114.61,114.61,0,0,0,15.1.9c10.5,0,14.7-2.6,14.8-7.8a5.54,5.54,0,0,0-2.9-5.4c-2.3-1.3-5.6-2.2-10.1-3.4-5-1.3-9.4-2.5-12.2-5-2.5-2.2-3.9-5-3.9-9.3,0-11.5,10.4-14.1,19.3-14.1a75.28,75.28,0,0,1,14.6,1.4v3.3a84.84,84.84,0,0,0-12.3-.9c-8.5,0-12.1,2.3-12.2,7.1a5.93,5.93,0,0,0,3.1,5.7c2.2,1.3,5.3,2.2,9.2,3.1,5.3,1.4,9.5,2.7,12.4,4.7,3,2.2,4.5,5.1,4.4,10-.1,10.9-10.5,14.5-22.7,14.5A99,99,0,0,1,292.6,70Zm46.1-23c0-15,8.7-24.7,23.9-24.7S386.5,32,386.5,47s-8.7,24.6-23.9,24.6S338.7,62.2,338.7,47Zm36.7,0c0-13.8-3.6-20.9-12.8-20.9S349.8,33.2,349.8,47s3.6,20.9,12.8,20.9S375.4,60.7,375.4,47Zm20.5-24H406v3.6c3.9-2.6,8.5-3.7,13.8-3.7a33.91,33.91,0,0,1,5.4.5v3.7c-1.6-.1-3.4-.1-5-.1a43.35,43.35,0,0,0-13.5,2V70.9H395.9Z"/></clipPath><linearGradient id="名称未設定グラデーション_35" x1="-2" y1="50" x2="442" y2="50" gradientUnits="userSpaceOnUse"><stop offset="0" stop-color="#0071bc"/><stop offset="0.5"/></linearGradient></defs><title>mptensor_logo</title><g class="cls-2"><path d="M80.8,43.9c0-9.3-2-12.8-10.4-12.8-4.3,0-8.1,1.5-11.3,2.9a27.5,27.5,0,0,1,1.5,9.9v31H49.9v-31c0-9.3-1.2-12.8-11.1-12.8a26.42,26.42,0,0,0-9.2,1.8v42H18.8V27H29.3v3.9c3.1-2.7,8.5-4.6,14.3-4.6,7.2,0,11.9,1.7,14.5,5.8a27.61,27.61,0,0,1,17.1-5.8c10.51,0,16.41,4.8,16.41,17.6v31H80.8Z"/><path d="M113,72.5V94.9H102.3V27h10.4v2.7c3.9-2.5,8.7-3.4,13.8-3.4,12.8,0,22,8.3,22,24.7,0,16.2-9.1,24.6-22,24.6C121.5,75.6,116.9,74.8,113,72.5Zm24.4-21.6c0-14.9-5-20.2-15.1-20.2a28.83,28.83,0,0,0-9.3,1.6V69.7a29.31,29.31,0,0,0,9.3,1.6C132.4,71.3,137.4,66,137.4,50.9Z"/><path d="M154.1,27h7.3V13.1h10.8V27h12.6v3.6H172.2V63.8c0,5.8,2.2,7.6,7.6,7.6a20.74,20.74,0,0,0,5-.6v3.4a36.06,36.06,0,0,1-9.4,1c-8,0-14-2.6-14-13.5V30.6h-7.3Z"/><path d="M190.5,50.9c0-16.4,9.8-24.6,22.5-24.6,13.4,0,22,7.7,22,23.9,0,.8-.1,1.8-.2,2.8H201.3c.3,15.1,4.9,18.5,18.3,18.5a66.34,66.34,0,0,0,12.6-1.1v3.4a61.9,61.9,0,0,1-15.1,1.6C201.5,75.4,190.5,70.1,190.5,50.9Zm10.8-1.5h23.3c-.4-13.6-2.5-19.3-11.5-19.3C204.4,30.1,201.5,35.8,201.3,49.4Z"/><path d="M244.3,27h10.4v3.6c3.5-2.4,9.4-4.3,15.6-4.3,11.2,0,18.2,4.7,18.2,17.6v31H277.7v-31c0-9.3-3.2-12.8-12.3-12.8a32.61,32.61,0,0,0-10.3,1.8v42H244.3Z"/><path d="M296.6,74V70.6a114.61,114.61,0,0,0,15.1.9c10.5,0,14.7-2.6,14.8-7.8a5.54,5.54,0,0,0-2.9-5.4c-2.3-1.3-5.6-2.2-10.1-3.4-5-1.3-9.4-2.5-12.2-5-2.5-2.2-3.9-5-3.9-9.3,0-11.5,10.4-14.1,19.3-14.1a75.28,75.28,0,0,1,14.6,1.4v3.3a84.84,84.84,0,0,0-12.3-.9c-8.5,0-12.1,2.3-12.2,7.1a5.93,5.93,0,0,0,3.1,5.7c2.2,1.3,5.3,2.2,9.2,3.1,5.3,1.4,9.5,2.7,12.4,4.7,3,2.2,4.5,5.1,4.4,10-.1,10.9-10.5,14.5-22.7,14.5A99,99,0,0,1,296.6,74Z"/><path d="M342.7,51c0-15,8.7-24.7,23.9-24.7S390.5,36,390.5,51s-8.7,24.6-23.9,24.6S342.7,66.2,342.7,51Zm36.7,0c0-13.8-3.6-20.9-12.8-20.9S353.8,37.2,353.8,51s3.6,20.9,12.8,20.9S379.4,64.7,379.4,51Z"/><path d="M399.9,27H410v3.6c3.9-2.6,8.5-3.7,13.8-3.7a33.91,33.91,0,0,1,5.4.5v3.7c-1.6-.1-3.4-.1-5-.1a43.35,43.35,0,0,0-13.5,2V74.9H399.9Z"/></g><g class="cls-3"><rect class="cls-4" x="-2" width="444" height="100"/></g></svg>